<mxfile host="Electron" agent="Mozilla/5.0 (Windows NT 10.0; Win64; x64) AppleWebKit/537.36 (KHTML, like Gecko) draw.io/24.7.5 Chrome/126.0.6478.183 Electron/31.3.0 Safari/537.36" version="24.7.5" pages="7">
  <diagram id="AnIAnSkU4SEaLR2FOdb6" name="Containers">
    <mxGraphModel dx="1332" dy="576" grid="1" gridSize="10" guides="1" tooltips="1" connect="1" arrows="1" fold="1" page="1" pageScale="1" pageWidth="850" pageHeight="1100" math="0" shadow="0">
      <root>
        <mxCell id="0" />
        <mxCell id="1" parent="0" />
        <mxCell id="xJfmcRrZpMY-GIyEA2tr-1" value="" style="rounded=0;whiteSpace=wrap;html=1;fillColor=#bac8d3;strokeColor=#23445d;" vertex="1" parent="1">
          <mxGeometry x="305" y="30" width="415" height="550" as="geometry" />
        </mxCell>
        <mxCell id="xJfmcRrZpMY-GIyEA2tr-2" value="&lt;font style=&quot;font-size: 24px;&quot;&gt;&lt;b&gt;HOST OS&lt;/b&gt;&lt;/font&gt;" style="rounded=0;whiteSpace=wrap;html=1;fillColor=#f8cecc;strokeColor=#b85450;" vertex="1" parent="1">
          <mxGeometry x="327.5" y="400" width="370" height="70" as="geometry" />
        </mxCell>
        <mxCell id="xJfmcRrZpMY-GIyEA2tr-3" value="&lt;font style=&quot;font-size: 24px;&quot;&gt;&lt;b&gt;Hardware&lt;/b&gt;&lt;/font&gt;" style="rounded=0;whiteSpace=wrap;html=1;fillColor=#dae8fc;strokeColor=#6c8ebf;" vertex="1" parent="1">
          <mxGeometry x="327.5" y="480" width="370" height="70" as="geometry" />
        </mxCell>
        <mxCell id="xJfmcRrZpMY-GIyEA2tr-4" value="&lt;font style=&quot;font-size: 24px;&quot;&gt;&lt;b&gt;Hypervisor&lt;/b&gt;&lt;/font&gt;" style="rounded=0;whiteSpace=wrap;html=1;fillColor=#d5e8d4;strokeColor=#82b366;" vertex="1" parent="1">
          <mxGeometry x="330" y="320" width="370" height="70" as="geometry" />
        </mxCell>
        <mxCell id="xJfmcRrZpMY-GIyEA2tr-5" value="&lt;font style=&quot;font-size: 24px;&quot;&gt;&lt;b&gt;Docker&lt;/b&gt;&lt;/font&gt;" style="rounded=0;whiteSpace=wrap;html=1;fillColor=#e1d5e7;strokeColor=#9673a6;" vertex="1" parent="1">
          <mxGeometry x="330" y="250" width="370" height="60" as="geometry" />
        </mxCell>
        <mxCell id="xJfmcRrZpMY-GIyEA2tr-6" value="" style="rounded=0;whiteSpace=wrap;html=1;" vertex="1" parent="1">
          <mxGeometry x="327.5" y="150" width="120" height="90" as="geometry" />
        </mxCell>
        <mxCell id="xJfmcRrZpMY-GIyEA2tr-7" value="&lt;font style=&quot;font-size: 20px;&quot;&gt;App1&lt;/font&gt;" style="rounded=1;whiteSpace=wrap;html=1;fillColor=#ffe6cc;strokeColor=#d79b00;" vertex="1" parent="1">
          <mxGeometry x="350" y="160" width="75" height="75" as="geometry" />
        </mxCell>
        <mxCell id="xJfmcRrZpMY-GIyEA2tr-8" value="" style="rounded=0;whiteSpace=wrap;html=1;" vertex="1" parent="1">
          <mxGeometry x="460" y="150" width="120" height="90" as="geometry" />
        </mxCell>
        <mxCell id="xJfmcRrZpMY-GIyEA2tr-9" value="&lt;font style=&quot;font-size: 20px;&quot;&gt;App2&lt;/font&gt;" style="rounded=1;whiteSpace=wrap;html=1;fillColor=#ffe6cc;strokeColor=#d79b00;" vertex="1" parent="1">
          <mxGeometry x="482.5" y="160" width="75" height="75" as="geometry" />
        </mxCell>
        <mxCell id="xJfmcRrZpMY-GIyEA2tr-10" value="" style="rounded=0;whiteSpace=wrap;html=1;" vertex="1" parent="1">
          <mxGeometry x="590" y="150" width="120" height="90" as="geometry" />
        </mxCell>
        <mxCell id="xJfmcRrZpMY-GIyEA2tr-11" value="&lt;font style=&quot;font-size: 20px;&quot;&gt;App3&lt;/font&gt;" style="rounded=1;whiteSpace=wrap;html=1;fillColor=#ffe6cc;strokeColor=#d79b00;" vertex="1" parent="1">
          <mxGeometry x="612.5" y="160" width="75" height="75" as="geometry" />
        </mxCell>
        <mxCell id="xJfmcRrZpMY-GIyEA2tr-12" value="" style="rounded=0;whiteSpace=wrap;html=1;" vertex="1" parent="1">
          <mxGeometry x="327.5" y="50" width="120" height="90" as="geometry" />
        </mxCell>
        <mxCell id="xJfmcRrZpMY-GIyEA2tr-13" value="&lt;font style=&quot;font-size: 20px;&quot;&gt;App4&lt;/font&gt;" style="rounded=1;whiteSpace=wrap;html=1;fillColor=#ffe6cc;strokeColor=#d79b00;" vertex="1" parent="1">
          <mxGeometry x="350" y="60" width="75" height="75" as="geometry" />
        </mxCell>
        <mxCell id="xJfmcRrZpMY-GIyEA2tr-14" value="" style="rounded=0;whiteSpace=wrap;html=1;" vertex="1" parent="1">
          <mxGeometry x="460" y="52.5" width="120" height="90" as="geometry" />
        </mxCell>
        <mxCell id="xJfmcRrZpMY-GIyEA2tr-15" value="&lt;font style=&quot;font-size: 20px;&quot;&gt;App5&lt;/font&gt;" style="rounded=1;whiteSpace=wrap;html=1;fillColor=#ffe6cc;strokeColor=#d79b00;" vertex="1" parent="1">
          <mxGeometry x="482.5" y="62.5" width="75" height="75" as="geometry" />
        </mxCell>
        <mxCell id="xJfmcRrZpMY-GIyEA2tr-16" value="" style="rounded=0;whiteSpace=wrap;html=1;" vertex="1" parent="1">
          <mxGeometry x="590" y="50" width="120" height="90" as="geometry" />
        </mxCell>
        <mxCell id="xJfmcRrZpMY-GIyEA2tr-17" value="&lt;font style=&quot;font-size: 20px;&quot;&gt;App6&lt;/font&gt;" style="rounded=1;whiteSpace=wrap;html=1;fillColor=#ffe6cc;strokeColor=#d79b00;" vertex="1" parent="1">
          <mxGeometry x="612.5" y="60" width="75" height="75" as="geometry" />
        </mxCell>
      </root>
    </mxGraphModel>
  </diagram>
  <diagram name="What and Why" id="4J8g6Q8-amdBNQk7NjtP">
    <mxGraphModel dx="1730" dy="542" grid="1" gridSize="10" guides="1" tooltips="1" connect="1" arrows="1" fold="1" page="1" pageScale="1" pageWidth="850" pageHeight="1100" math="0" shadow="0">
      <root>
        <mxCell id="0" />
        <mxCell id="1" parent="0" />
        <mxCell id="QSueT5-6fv3K5oLR0Pl2-1" value="&lt;h1&gt;What is Docker&lt;/h1&gt;" style="rounded=0;whiteSpace=wrap;html=1;fillColor=#dae8fc;strokeColor=#6c8ebf;" parent="1" vertex="1">
          <mxGeometry x="-160" y="210" width="210" height="100" as="geometry" />
        </mxCell>
        <mxCell id="QSueT5-6fv3K5oLR0Pl2-2" value="&lt;h1&gt;Why we use Docker&lt;/h1&gt;" style="rounded=0;whiteSpace=wrap;html=1;fillColor=#dae8fc;strokeColor=#6c8ebf;" parent="1" vertex="1">
          <mxGeometry x="-160" y="330" width="210" height="100" as="geometry" />
        </mxCell>
        <mxCell id="QSueT5-6fv3K5oLR0Pl2-5" value="&lt;font style=&quot;font-size: 24px;&quot;&gt;&lt;b&gt;Two Important Questions&amp;nbsp;&lt;/b&gt;&lt;/font&gt;" style="text;html=1;align=center;verticalAlign=middle;resizable=0;points=[];autosize=1;strokeColor=none;fillColor=none;" parent="1" vertex="1">
          <mxGeometry x="-530" y="300" width="320" height="40" as="geometry" />
        </mxCell>
        <mxCell id="QSueT5-6fv3K5oLR0Pl2-6" style="edgeStyle=orthogonalEdgeStyle;rounded=0;orthogonalLoop=1;jettySize=auto;html=1;entryX=0.416;entryY=0;entryDx=0;entryDy=0;entryPerimeter=0;" parent="1" source="QSueT5-6fv3K5oLR0Pl2-1" target="QSueT5-6fv3K5oLR0Pl2-5" edge="1">
          <mxGeometry relative="1" as="geometry" />
        </mxCell>
        <mxCell id="QSueT5-6fv3K5oLR0Pl2-7" style="edgeStyle=orthogonalEdgeStyle;rounded=0;orthogonalLoop=1;jettySize=auto;html=1;entryX=0.425;entryY=0.975;entryDx=0;entryDy=0;entryPerimeter=0;" parent="1" source="QSueT5-6fv3K5oLR0Pl2-2" target="QSueT5-6fv3K5oLR0Pl2-5" edge="1">
          <mxGeometry relative="1" as="geometry" />
        </mxCell>
      </root>
    </mxGraphModel>
  </diagram>
  <diagram id="Aqn7YpV2xbZvL-JRiEv-" name="Developing">
    <mxGraphModel dx="2182" dy="576" grid="1" gridSize="10" guides="1" tooltips="1" connect="1" arrows="1" fold="1" page="1" pageScale="1" pageWidth="850" pageHeight="1100" math="0" shadow="0">
      <root>
        <mxCell id="0" />
        <mxCell id="1" parent="0" />
        <mxCell id="LpSSfsO0Qp8zcPXdRs3i-27" value="" style="rounded=0;whiteSpace=wrap;html=1;" parent="1" vertex="1">
          <mxGeometry x="-190" y="555" width="630" height="160" as="geometry" />
        </mxCell>
        <mxCell id="LpSSfsO0Qp8zcPXdRs3i-19" style="edgeStyle=orthogonalEdgeStyle;rounded=0;orthogonalLoop=1;jettySize=auto;html=1;entryX=0.5;entryY=0;entryDx=0;entryDy=0;" parent="1" source="i1_KIll5lZvFMTp3iyFC-1" target="LpSSfsO0Qp8zcPXdRs3i-11" edge="1">
          <mxGeometry relative="1" as="geometry" />
        </mxCell>
        <mxCell id="i1_KIll5lZvFMTp3iyFC-1" value="&lt;font style=&quot;font-size: 24px;&quot;&gt;&lt;b&gt;Full Stack Application&lt;/b&gt;&lt;/font&gt;" style="rounded=0;whiteSpace=wrap;html=1;fillColor=#dae8fc;strokeColor=#6c8ebf;" parent="1" vertex="1">
          <mxGeometry x="-10" y="245" width="270" height="90" as="geometry" />
        </mxCell>
        <mxCell id="LpSSfsO0Qp8zcPXdRs3i-4" style="edgeStyle=orthogonalEdgeStyle;rounded=0;orthogonalLoop=1;jettySize=auto;html=1;" parent="1" source="LpSSfsO0Qp8zcPXdRs3i-3" edge="1">
          <mxGeometry relative="1" as="geometry">
            <mxPoint x="-20" y="290" as="targetPoint" />
          </mxGeometry>
        </mxCell>
        <mxCell id="LpSSfsO0Qp8zcPXdRs3i-3" value="" style="shape=image;aspect=fixed;image=data:image/svg+xml,PCFET0NUWVBFIHN2ZyBQVUJMSUMgIi0vL1czQy8vRFREIFNWRyAxLjEvL0VOIiAiaHR0cDovL3d3dy53My5vcmcvR3JhcGhpY3MvU1ZHLzEuMS9EVEQvc3ZnMTEuZHRkIj4KDTwhLS0gVXBsb2FkZWQgdG86IFNWRyBSZXBvLCB3d3cuc3ZncmVwby5jb20sIFRyYW5zZm9ybWVkIGJ5OiBTVkcgUmVwbyBNaXhlciBUb29scyAtLT4KPHN2ZyBmaWxsPSIjMDAwMDAwIiB2ZXJzaW9uPSIxLjEiIGlkPSJDYXBhXzEiIHhtbG5zPSJodHRwOi8vd3d3LnczLm9yZy8yMDAwL3N2ZyIgeG1sbnM6eGxpbms9Imh0dHA6Ly93d3cudzMub3JnLzE5OTkveGxpbmsiIHdpZHRoPSI4MDBweCIgaGVpZ2h0PSI4MDBweCIgdmlld0JveD0iMCAwIDMxLjY5OSAzMS42OTkiIHhtbDpzcGFjZT0icHJlc2VydmUiPgoNPGcgaWQ9IlNWR1JlcG9fYmdDYXJyaWVyIiBzdHJva2Utd2lkdGg9IjAiLz4KDTxnIGlkPSJTVkdSZXBvX3RyYWNlckNhcnJpZXIiIHN0cm9rZS1saW5lY2FwPSJyb3VuZCIgc3Ryb2tlLWxpbmVqb2luPSJyb3VuZCIvPgoNPGcgaWQ9IlNWR1JlcG9faWNvbkNhcnJpZXIiPiA8Zz4gPGc+IDxjaXJjbGUgY3g9IjEzLjM1MiIgY3k9IjYuNDU5IiByPSIyLjgzMSIvPiA8cGF0aCBkPSJNMTEuMDI1LDE1LjQxM2MwLjk0MywwLjY1NywyLjA2MiwwLjk4NSwzLjM0NywwLjk4NWMwLjcwMSwwLDIuOTE4LTAuNDgyLDMuNDQ2LTAuNjUyIGMwLjU5Ny0wLjIwNSwwLjg5NS0wLjQ5MywxLjA3NC0wLjg0NWMwLjIyMS0wLjU5MiwwLjExNS0xLjIxNywwLjExNS0xLjIxN2MtMC4xNzktMS4xMS0xLjI2My0xLjM2Mi0yLjEwNS0xLjA1NyBjLTEuMjU3LDAuNDQ5LTIuOTcyLDAuODM2LTQuMDA3LDAuMTI2Yy0wLjQzOC0wLjMtMC43MTMtMC43NjgtMC44ODUtMS4yMjJjMC4yNTgtMC44NTIsMC4wOTItMS44MTItMC41MjctMi41NDIgYy0wLjk2OS0xLjE0LTIuNTc2LTEuMTQyLTMuODE4LTAuMzA5Yy0yLjEzMiwxLjQzLTMuNzg3LDYuNTAyLTMuNzg3LDkuMzU3YzAuMDEsMC4wMDItMC4wODUsMS4zOTgsMS40NzgsMS41MzMgYzAuNDY5LDAuMDI0LDQuNTczLDAuMDE0LDUuODY1LDAuMDFjMC4wMDUsMC4wMjMsMC4wMTIsMC4wNjYsMC4wMTIsMC4xMzdjLTAuMDA1LDEuMTgyLDAuMDAxLDUuNDgsMC4wMDQsNy40NzUgYzAuMDAxLDAuNTY0LDAuNDYsMS4wMjEsMS4wMjYsMS4wMjFoMS4wMTZjMC4yNzMsMCwwLjUzNC0wLjEwNSwwLjcyNi0wLjMwMWMwLjE5Mi0wLjE5MywwLjMtMC40NTMsMC4zLTAuNzI3IGMtMC4wMDMtMS45OTItMC4wMDktNi4yODEtMC4wMDUtNy40NTdjMC4wMDktMi4wOTEtMS41ODQtMy4wNjItMi42NTctMy4yMDNsLTAuMjA4LTAuMDE1Yy0wLjYxNCwwLjAwMi0xLjM0NiwwLjAwNC0yLjA4MiwwLjAwNiBjMC4xNjgtMC44MDUsMC40MTUtMS40NzEsMC42NzQtMi4wMUMxMC4zMDYsMTQuODMzLDEwLjYzNSwxNS4xNCwxMS4wMjUsMTUuNDEzeiIvPiA8cGF0aCBkPSJNMy4wNzEsNi43MzhjMC0wLjg0OC0wLjY4OC0xLjUzNC0xLjUzNS0xLjUzNEMwLjY4OCw1LjIwNCwwLDUuODkxLDAsNi43Mzh2MTUuMzM5YzAsMC43OTEsMC42MDEsMS40NDEsMS4zNzEsMS41MjEgYzAuMDAxLDAuMDA1LDAuMDAzLDAuMDA3LDAuMDA1LDAuMDA3aDAuNTV2My41ODZjMCwwLjU2MywwLjQ1MSwxLjAyMiwxLjAxNSwxLjAyMmMwLjU2NSwwLDEuMDE1LTAuNDU3LDEuMDE1LTEuMDIydi0zLjU4NmgzLjIyOCB2My41ODZjMCwwLjU2MywwLjQ1MSwxLjAyMiwxLjAxNiwxLjAyMmMwLjU2NCwwLDEuMDE1LTAuNDU3LDEuMDE1LTEuMDIydi0zLjU4NmgwLjk4OXYtMy4wN0gzLjA3MVY2LjczOHoiLz4gPHBhdGggZD0iTTMwLjY4OSwxNi45NDJjLTAuMjM0LTEuMjA3LTEuMDA4LTIuMjI0LTIuMDYyLTIuNzgxdi0wLjk2OGgxLjQ1N1Y2LjQ0NWwtNS41NjctMS45OTZWMy40NmgtMi4wMzF2MTAuMjU2aDIuMDMxdi0wLjUyMSBoMS4wNDF2MC42OTZjLTEuMzc5LDAuNDM5LTIuNDI4LDEuNjA2LTIuNzA5LDMuMDUyaC02LjQ4OGMtMC41NjUsMC0xLjAyMywwLjQ3Ny0xLjAyMywxLjA0MWMwLDAuNTY1LDAuNDU4LDEuMDQxLDEuMDIzLDEuMDQxIGgyLjA2M3Y5LjIxNWgxMS4yNDR2LTkuMjE1aDEuMDA3YzAuNTY0LDAsMS4wMjMtMC40NzYsMS4wMjMtMS4wNDFDMzEuNzAyLDE3LjQyMywzMS4yNSwxNi45NDgsMzAuNjg5LDE2Ljk0MnoiLz4gPC9nPiA8L2c+IDwvZz4KDTwvc3ZnPg==;" parent="1" vertex="1">
          <mxGeometry x="-300" y="220" width="140" height="140" as="geometry" />
        </mxCell>
        <mxCell id="LpSSfsO0Qp8zcPXdRs3i-6" value="&lt;font style=&quot;font-size: 20px;&quot;&gt;&lt;b&gt;React&lt;/b&gt;&lt;/font&gt;" style="rounded=1;whiteSpace=wrap;html=1;fillColor=#fff2cc;strokeColor=#d6b656;" parent="1" vertex="1">
          <mxGeometry x="-117.5" y="575" width="100" height="50" as="geometry" />
        </mxCell>
        <mxCell id="LpSSfsO0Qp8zcPXdRs3i-8" value="&lt;font style=&quot;font-size: 20px;&quot;&gt;&lt;b&gt;Express JS&lt;/b&gt;&lt;/font&gt;" style="rounded=1;whiteSpace=wrap;html=1;fillColor=#fff2cc;strokeColor=#d6b656;" parent="1" vertex="1">
          <mxGeometry x="47.5" y="575" width="140" height="50" as="geometry" />
        </mxCell>
        <mxCell id="LpSSfsO0Qp8zcPXdRs3i-9" value="&lt;span style=&quot;font-size: 20px;&quot;&gt;&lt;b&gt;Frontend&lt;/b&gt;&lt;/span&gt;" style="rounded=1;whiteSpace=wrap;html=1;fillColor=#f8cecc;strokeColor=#b85450;" parent="1" vertex="1">
          <mxGeometry x="-125" y="445" width="115" height="60" as="geometry" />
        </mxCell>
        <mxCell id="LpSSfsO0Qp8zcPXdRs3i-29" style="edgeStyle=orthogonalEdgeStyle;rounded=0;orthogonalLoop=1;jettySize=auto;html=1;" parent="1" source="LpSSfsO0Qp8zcPXdRs3i-10" edge="1">
          <mxGeometry relative="1" as="geometry">
            <mxPoint x="117.5" y="544.9999999999999" as="targetPoint" />
          </mxGeometry>
        </mxCell>
        <mxCell id="LpSSfsO0Qp8zcPXdRs3i-10" value="&lt;span style=&quot;font-size: 20px;&quot;&gt;&lt;b&gt;Backend&lt;/b&gt;&lt;/span&gt;&lt;span style=&quot;color: rgba(0, 0, 0, 0); font-family: monospace; font-size: 0px; text-align: start; text-wrap: nowrap;&quot;&gt;%3CmxGraphModel%3E%3Croot%3E%3CmxCell%20id%3D%220%22%2F%3E%3CmxCell%20id%3D%221%22%20parent%3D%220%22%2F%3E%3CmxCell%20id%3D%222%22%20value%3D%22%26lt%3Bspan%20style%3D%26quot%3Bfont-size%3A%2020px%3B%26quot%3B%26gt%3B%26lt%3Bb%26gt%3BFrontend%26lt%3B%2Fb%26gt%3B%26lt%3B%2Fspan%26gt%3B%22%20style%3D%22rounded%3D1%3BwhiteSpace%3Dwrap%3Bhtml%3D1%3BfillColor%3D%23f8cecc%3BstrokeColor%3D%23b85450%3B%22%20vertex%3D%221%22%20parent%3D%221%22%3E%3CmxGeometry%20x%3D%22325%22%20y%3D%22400%22%20width%3D%22115%22%20height%3D%2260%22%20as%3D%22geometry%22%2F%3E%3C%2FmxCell%3E%3C%2Froot%3E%3C%2FmxGraphModel%3E&lt;/span&gt;" style="rounded=1;whiteSpace=wrap;html=1;fillColor=#f8cecc;strokeColor=#b85450;" parent="1" vertex="1">
          <mxGeometry x="60" y="445" width="115" height="60" as="geometry" />
        </mxCell>
        <mxCell id="LpSSfsO0Qp8zcPXdRs3i-30" style="edgeStyle=orthogonalEdgeStyle;rounded=0;orthogonalLoop=1;jettySize=auto;html=1;" parent="1" source="LpSSfsO0Qp8zcPXdRs3i-11" edge="1">
          <mxGeometry relative="1" as="geometry">
            <mxPoint x="317.5" y="544.9999999999999" as="targetPoint" />
          </mxGeometry>
        </mxCell>
        <mxCell id="LpSSfsO0Qp8zcPXdRs3i-11" value="&lt;span style=&quot;font-size: 20px;&quot;&gt;&lt;b&gt;Database&lt;/b&gt;&lt;/span&gt;" style="rounded=1;whiteSpace=wrap;html=1;fillColor=#f8cecc;strokeColor=#b85450;" parent="1" vertex="1">
          <mxGeometry x="260" y="445" width="115" height="60" as="geometry" />
        </mxCell>
        <mxCell id="LpSSfsO0Qp8zcPXdRs3i-12" style="edgeStyle=orthogonalEdgeStyle;rounded=0;orthogonalLoop=1;jettySize=auto;html=1;entryX=0.43;entryY=0.022;entryDx=0;entryDy=0;entryPerimeter=0;" parent="1" source="i1_KIll5lZvFMTp3iyFC-1" target="LpSSfsO0Qp8zcPXdRs3i-9" edge="1">
          <mxGeometry relative="1" as="geometry" />
        </mxCell>
        <mxCell id="LpSSfsO0Qp8zcPXdRs3i-18" style="edgeStyle=orthogonalEdgeStyle;rounded=0;orthogonalLoop=1;jettySize=auto;html=1;entryX=0.568;entryY=-0.006;entryDx=0;entryDy=0;entryPerimeter=0;" parent="1" source="i1_KIll5lZvFMTp3iyFC-1" target="LpSSfsO0Qp8zcPXdRs3i-10" edge="1">
          <mxGeometry relative="1" as="geometry" />
        </mxCell>
        <mxCell id="LpSSfsO0Qp8zcPXdRs3i-20" value="&lt;font style=&quot;font-size: 20px;&quot;&gt;&lt;b&gt;Tailwind CSS&lt;/b&gt;&lt;/font&gt;" style="rounded=1;whiteSpace=wrap;html=1;fillColor=#fff2cc;strokeColor=#d6b656;" parent="1" vertex="1">
          <mxGeometry x="-137.5" y="635" width="140" height="50" as="geometry" />
        </mxCell>
        <mxCell id="LpSSfsO0Qp8zcPXdRs3i-21" value="&lt;font style=&quot;font-size: 20px;&quot;&gt;&lt;b&gt;JWT libraries&lt;/b&gt;&lt;/font&gt;" style="rounded=1;whiteSpace=wrap;html=1;fillColor=#fff2cc;strokeColor=#d6b656;" parent="1" vertex="1">
          <mxGeometry x="47.5" y="635" width="140" height="50" as="geometry" />
        </mxCell>
        <mxCell id="LpSSfsO0Qp8zcPXdRs3i-22" value="&lt;span style=&quot;font-size: 20px;&quot;&gt;&lt;b&gt;MongoDB&lt;/b&gt;&lt;/span&gt;" style="rounded=1;whiteSpace=wrap;html=1;fillColor=#fff2cc;strokeColor=#d6b656;" parent="1" vertex="1">
          <mxGeometry x="260" y="575" width="140" height="50" as="geometry" />
        </mxCell>
        <mxCell id="LpSSfsO0Qp8zcPXdRs3i-23" value="&lt;font style=&quot;font-size: 20px;&quot;&gt;&lt;b&gt;Mongoose&lt;/b&gt;&lt;/font&gt;" style="rounded=1;whiteSpace=wrap;html=1;fillColor=#fff2cc;strokeColor=#d6b656;" parent="1" vertex="1">
          <mxGeometry x="260" y="635" width="140" height="50" as="geometry" />
        </mxCell>
        <mxCell id="LpSSfsO0Qp8zcPXdRs3i-28" style="edgeStyle=orthogonalEdgeStyle;rounded=0;orthogonalLoop=1;jettySize=auto;html=1;entryX=0.194;entryY=0;entryDx=0;entryDy=0;entryPerimeter=0;" parent="1" source="LpSSfsO0Qp8zcPXdRs3i-9" target="LpSSfsO0Qp8zcPXdRs3i-27" edge="1">
          <mxGeometry relative="1" as="geometry" />
        </mxCell>
        <mxCell id="LpSSfsO0Qp8zcPXdRs3i-31" value="&lt;font style=&quot;font-size: 24px;&quot;&gt;&lt;b&gt;Must be Installed Before&lt;/b&gt;&lt;/font&gt;" style="text;html=1;align=center;verticalAlign=middle;resizable=0;points=[];autosize=1;strokeColor=none;fillColor=none;" parent="1" vertex="1">
          <mxGeometry x="-500" y="605" width="300" height="40" as="geometry" />
        </mxCell>
      </root>
    </mxGraphModel>
  </diagram>
  <diagram name="Deploying" id="lZzNZ6eofLQiPgzUoT31">
    <mxGraphModel dx="1888" dy="440" grid="1" gridSize="10" guides="1" tooltips="1" connect="1" arrows="1" fold="1" page="1" pageScale="1" pageWidth="850" pageHeight="1100" math="0" shadow="0">
      <root>
        <mxCell id="od1O0DOVl9EhEDQhezG--0" />
        <mxCell id="od1O0DOVl9EhEDQhezG--1" parent="od1O0DOVl9EhEDQhezG--0" />
        <mxCell id="od1O0DOVl9EhEDQhezG--2" value="" style="rounded=0;whiteSpace=wrap;html=1;" parent="od1O0DOVl9EhEDQhezG--1" vertex="1">
          <mxGeometry x="-220" y="560" width="630" height="160" as="geometry" />
        </mxCell>
        <mxCell id="od1O0DOVl9EhEDQhezG--3" style="edgeStyle=orthogonalEdgeStyle;rounded=0;orthogonalLoop=1;jettySize=auto;html=1;entryX=0.5;entryY=0;entryDx=0;entryDy=0;" parent="od1O0DOVl9EhEDQhezG--1" source="od1O0DOVl9EhEDQhezG--4" target="od1O0DOVl9EhEDQhezG--13" edge="1">
          <mxGeometry relative="1" as="geometry" />
        </mxCell>
        <mxCell id="od1O0DOVl9EhEDQhezG--4" value="&lt;font style=&quot;font-size: 24px;&quot;&gt;&lt;b&gt;Full Stack Application&lt;/b&gt;&lt;/font&gt;" style="rounded=0;whiteSpace=wrap;html=1;fillColor=#dae8fc;strokeColor=#6c8ebf;" parent="od1O0DOVl9EhEDQhezG--1" vertex="1">
          <mxGeometry x="-40" y="250" width="270" height="90" as="geometry" />
        </mxCell>
        <mxCell id="od1O0DOVl9EhEDQhezG--5" style="edgeStyle=orthogonalEdgeStyle;rounded=0;orthogonalLoop=1;jettySize=auto;html=1;" parent="od1O0DOVl9EhEDQhezG--1" source="od1O0DOVl9EhEDQhezG--6" edge="1">
          <mxGeometry relative="1" as="geometry">
            <mxPoint x="-50" y="295" as="targetPoint" />
          </mxGeometry>
        </mxCell>
        <mxCell id="od1O0DOVl9EhEDQhezG--6" value="" style="shape=image;aspect=fixed;image=data:image/svg+xml,PCFET0NUWVBFIHN2ZyBQVUJMSUMgIi0vL1czQy8vRFREIFNWRyAxLjEvL0VOIiAiaHR0cDovL3d3dy53My5vcmcvR3JhcGhpY3MvU1ZHLzEuMS9EVEQvc3ZnMTEuZHRkIj4KDTwhLS0gVXBsb2FkZWQgdG86IFNWRyBSZXBvLCB3d3cuc3ZncmVwby5jb20sIFRyYW5zZm9ybWVkIGJ5OiBTVkcgUmVwbyBNaXhlciBUb29scyAtLT4KPHN2ZyBmaWxsPSIjMDAwMDAwIiB2ZXJzaW9uPSIxLjEiIGlkPSJDYXBhXzEiIHhtbG5zPSJodHRwOi8vd3d3LnczLm9yZy8yMDAwL3N2ZyIgeG1sbnM6eGxpbms9Imh0dHA6Ly93d3cudzMub3JnLzE5OTkveGxpbmsiIHdpZHRoPSI4MDBweCIgaGVpZ2h0PSI4MDBweCIgdmlld0JveD0iMCAwIDMxLjY5OSAzMS42OTkiIHhtbDpzcGFjZT0icHJlc2VydmUiPgoNPGcgaWQ9IlNWR1JlcG9fYmdDYXJyaWVyIiBzdHJva2Utd2lkdGg9IjAiLz4KDTxnIGlkPSJTVkdSZXBvX3RyYWNlckNhcnJpZXIiIHN0cm9rZS1saW5lY2FwPSJyb3VuZCIgc3Ryb2tlLWxpbmVqb2luPSJyb3VuZCIvPgoNPGcgaWQ9IlNWR1JlcG9faWNvbkNhcnJpZXIiPiA8Zz4gPGc+IDxjaXJjbGUgY3g9IjEzLjM1MiIgY3k9IjYuNDU5IiByPSIyLjgzMSIvPiA8cGF0aCBkPSJNMTEuMDI1LDE1LjQxM2MwLjk0MywwLjY1NywyLjA2MiwwLjk4NSwzLjM0NywwLjk4NWMwLjcwMSwwLDIuOTE4LTAuNDgyLDMuNDQ2LTAuNjUyIGMwLjU5Ny0wLjIwNSwwLjg5NS0wLjQ5MywxLjA3NC0wLjg0NWMwLjIyMS0wLjU5MiwwLjExNS0xLjIxNywwLjExNS0xLjIxN2MtMC4xNzktMS4xMS0xLjI2My0xLjM2Mi0yLjEwNS0xLjA1NyBjLTEuMjU3LDAuNDQ5LTIuOTcyLDAuODM2LTQuMDA3LDAuMTI2Yy0wLjQzOC0wLjMtMC43MTMtMC43NjgtMC44ODUtMS4yMjJjMC4yNTgtMC44NTIsMC4wOTItMS44MTItMC41MjctMi41NDIgYy0wLjk2OS0xLjE0LTIuNTc2LTEuMTQyLTMuODE4LTAuMzA5Yy0yLjEzMiwxLjQzLTMuNzg3LDYuNTAyLTMuNzg3LDkuMzU3YzAuMDEsMC4wMDItMC4wODUsMS4zOTgsMS40NzgsMS41MzMgYzAuNDY5LDAuMDI0LDQuNTczLDAuMDE0LDUuODY1LDAuMDFjMC4wMDUsMC4wMjMsMC4wMTIsMC4wNjYsMC4wMTIsMC4xMzdjLTAuMDA1LDEuMTgyLDAuMDAxLDUuNDgsMC4wMDQsNy40NzUgYzAuMDAxLDAuNTY0LDAuNDYsMS4wMjEsMS4wMjYsMS4wMjFoMS4wMTZjMC4yNzMsMCwwLjUzNC0wLjEwNSwwLjcyNi0wLjMwMWMwLjE5Mi0wLjE5MywwLjMtMC40NTMsMC4zLTAuNzI3IGMtMC4wMDMtMS45OTItMC4wMDktNi4yODEtMC4wMDUtNy40NTdjMC4wMDktMi4wOTEtMS41ODQtMy4wNjItMi42NTctMy4yMDNsLTAuMjA4LTAuMDE1Yy0wLjYxNCwwLjAwMi0xLjM0NiwwLjAwNC0yLjA4MiwwLjAwNiBjMC4xNjgtMC44MDUsMC40MTUtMS40NzEsMC42NzQtMi4wMUMxMC4zMDYsMTQuODMzLDEwLjYzNSwxNS4xNCwxMS4wMjUsMTUuNDEzeiIvPiA8cGF0aCBkPSJNMy4wNzEsNi43MzhjMC0wLjg0OC0wLjY4OC0xLjUzNC0xLjUzNS0xLjUzNEMwLjY4OCw1LjIwNCwwLDUuODkxLDAsNi43Mzh2MTUuMzM5YzAsMC43OTEsMC42MDEsMS40NDEsMS4zNzEsMS41MjEgYzAuMDAxLDAuMDA1LDAuMDAzLDAuMDA3LDAuMDA1LDAuMDA3aDAuNTV2My41ODZjMCwwLjU2MywwLjQ1MSwxLjAyMiwxLjAxNSwxLjAyMmMwLjU2NSwwLDEuMDE1LTAuNDU3LDEuMDE1LTEuMDIydi0zLjU4NmgzLjIyOCB2My41ODZjMCwwLjU2MywwLjQ1MSwxLjAyMiwxLjAxNiwxLjAyMmMwLjU2NCwwLDEuMDE1LTAuNDU3LDEuMDE1LTEuMDIydi0zLjU4NmgwLjk4OXYtMy4wN0gzLjA3MVY2LjczOHoiLz4gPHBhdGggZD0iTTMwLjY4OSwxNi45NDJjLTAuMjM0LTEuMjA3LTEuMDA4LTIuMjI0LTIuMDYyLTIuNzgxdi0wLjk2OGgxLjQ1N1Y2LjQ0NWwtNS41NjctMS45OTZWMy40NmgtMi4wMzF2MTAuMjU2aDIuMDMxdi0wLjUyMSBoMS4wNDF2MC42OTZjLTEuMzc5LDAuNDM5LTIuNDI4LDEuNjA2LTIuNzA5LDMuMDUyaC02LjQ4OGMtMC41NjUsMC0xLjAyMywwLjQ3Ny0xLjAyMywxLjA0MWMwLDAuNTY1LDAuNDU4LDEuMDQxLDEuMDIzLDEuMDQxIGgyLjA2M3Y5LjIxNWgxMS4yNDR2LTkuMjE1aDEuMDA3YzAuNTY0LDAsMS4wMjMtMC40NzYsMS4wMjMtMS4wNDFDMzEuNzAyLDE3LjQyMywzMS4yNSwxNi45NDgsMzAuNjg5LDE2Ljk0MnoiLz4gPC9nPiA8L2c+IDwvZz4KDTwvc3ZnPg==;" parent="od1O0DOVl9EhEDQhezG--1" vertex="1">
          <mxGeometry x="-330" y="225" width="140" height="140" as="geometry" />
        </mxCell>
        <mxCell id="od1O0DOVl9EhEDQhezG--7" value="&lt;font style=&quot;font-size: 20px;&quot;&gt;&lt;b&gt;React&lt;/b&gt;&lt;/font&gt;" style="rounded=1;whiteSpace=wrap;html=1;fillColor=#fff2cc;strokeColor=#d6b656;" parent="od1O0DOVl9EhEDQhezG--1" vertex="1">
          <mxGeometry x="-147.5" y="580" width="100" height="50" as="geometry" />
        </mxCell>
        <mxCell id="od1O0DOVl9EhEDQhezG--8" value="&lt;font style=&quot;font-size: 20px;&quot;&gt;&lt;b&gt;Express JS&lt;/b&gt;&lt;/font&gt;" style="rounded=1;whiteSpace=wrap;html=1;fillColor=#fff2cc;strokeColor=#d6b656;" parent="od1O0DOVl9EhEDQhezG--1" vertex="1">
          <mxGeometry x="17.5" y="580" width="140" height="50" as="geometry" />
        </mxCell>
        <mxCell id="od1O0DOVl9EhEDQhezG--9" value="&lt;span style=&quot;font-size: 20px;&quot;&gt;&lt;b&gt;Frontend&lt;/b&gt;&lt;/span&gt;" style="rounded=1;whiteSpace=wrap;html=1;fillColor=#f8cecc;strokeColor=#b85450;" parent="od1O0DOVl9EhEDQhezG--1" vertex="1">
          <mxGeometry x="-155" y="450" width="115" height="60" as="geometry" />
        </mxCell>
        <mxCell id="od1O0DOVl9EhEDQhezG--10" style="edgeStyle=orthogonalEdgeStyle;rounded=0;orthogonalLoop=1;jettySize=auto;html=1;" parent="od1O0DOVl9EhEDQhezG--1" source="od1O0DOVl9EhEDQhezG--11" edge="1">
          <mxGeometry relative="1" as="geometry">
            <mxPoint x="87.5" y="549.9999999999999" as="targetPoint" />
          </mxGeometry>
        </mxCell>
        <mxCell id="od1O0DOVl9EhEDQhezG--11" value="&lt;span style=&quot;font-size: 20px;&quot;&gt;&lt;b&gt;Backend&lt;/b&gt;&lt;/span&gt;&lt;span style=&quot;color: rgba(0, 0, 0, 0); font-family: monospace; font-size: 0px; text-align: start; text-wrap: nowrap;&quot;&gt;%3CmxGraphModel%3E%3Croot%3E%3CmxCell%20id%3D%220%22%2F%3E%3CmxCell%20id%3D%221%22%20parent%3D%220%22%2F%3E%3CmxCell%20id%3D%222%22%20value%3D%22%26lt%3Bspan%20style%3D%26quot%3Bfont-size%3A%2020px%3B%26quot%3B%26gt%3B%26lt%3Bb%26gt%3BFrontend%26lt%3B%2Fb%26gt%3B%26lt%3B%2Fspan%26gt%3B%22%20style%3D%22rounded%3D1%3BwhiteSpace%3Dwrap%3Bhtml%3D1%3BfillColor%3D%23f8cecc%3BstrokeColor%3D%23b85450%3B%22%20vertex%3D%221%22%20parent%3D%221%22%3E%3CmxGeometry%20x%3D%22325%22%20y%3D%22400%22%20width%3D%22115%22%20height%3D%2260%22%20as%3D%22geometry%22%2F%3E%3C%2FmxCell%3E%3C%2Froot%3E%3C%2FmxGraphModel%3E&lt;/span&gt;" style="rounded=1;whiteSpace=wrap;html=1;fillColor=#f8cecc;strokeColor=#b85450;" parent="od1O0DOVl9EhEDQhezG--1" vertex="1">
          <mxGeometry x="30" y="450" width="115" height="60" as="geometry" />
        </mxCell>
        <mxCell id="od1O0DOVl9EhEDQhezG--12" style="edgeStyle=orthogonalEdgeStyle;rounded=0;orthogonalLoop=1;jettySize=auto;html=1;" parent="od1O0DOVl9EhEDQhezG--1" source="od1O0DOVl9EhEDQhezG--13" edge="1">
          <mxGeometry relative="1" as="geometry">
            <mxPoint x="287.5" y="549.9999999999999" as="targetPoint" />
          </mxGeometry>
        </mxCell>
        <mxCell id="od1O0DOVl9EhEDQhezG--13" value="&lt;span style=&quot;font-size: 20px;&quot;&gt;&lt;b&gt;Database&lt;/b&gt;&lt;/span&gt;" style="rounded=1;whiteSpace=wrap;html=1;fillColor=#f8cecc;strokeColor=#b85450;" parent="od1O0DOVl9EhEDQhezG--1" vertex="1">
          <mxGeometry x="230" y="450" width="115" height="60" as="geometry" />
        </mxCell>
        <mxCell id="od1O0DOVl9EhEDQhezG--14" style="edgeStyle=orthogonalEdgeStyle;rounded=0;orthogonalLoop=1;jettySize=auto;html=1;entryX=0.43;entryY=0.022;entryDx=0;entryDy=0;entryPerimeter=0;" parent="od1O0DOVl9EhEDQhezG--1" source="od1O0DOVl9EhEDQhezG--4" target="od1O0DOVl9EhEDQhezG--9" edge="1">
          <mxGeometry relative="1" as="geometry" />
        </mxCell>
        <mxCell id="od1O0DOVl9EhEDQhezG--15" style="edgeStyle=orthogonalEdgeStyle;rounded=0;orthogonalLoop=1;jettySize=auto;html=1;entryX=0.568;entryY=-0.006;entryDx=0;entryDy=0;entryPerimeter=0;" parent="od1O0DOVl9EhEDQhezG--1" source="od1O0DOVl9EhEDQhezG--4" target="od1O0DOVl9EhEDQhezG--11" edge="1">
          <mxGeometry relative="1" as="geometry" />
        </mxCell>
        <mxCell id="od1O0DOVl9EhEDQhezG--16" value="&lt;font style=&quot;font-size: 20px;&quot;&gt;&lt;b&gt;Tailwind CSS&lt;/b&gt;&lt;/font&gt;" style="rounded=1;whiteSpace=wrap;html=1;fillColor=#fff2cc;strokeColor=#d6b656;" parent="od1O0DOVl9EhEDQhezG--1" vertex="1">
          <mxGeometry x="-167.5" y="640" width="140" height="50" as="geometry" />
        </mxCell>
        <mxCell id="od1O0DOVl9EhEDQhezG--17" value="&lt;font style=&quot;font-size: 20px;&quot;&gt;&lt;b&gt;JWT libraries&lt;/b&gt;&lt;/font&gt;" style="rounded=1;whiteSpace=wrap;html=1;fillColor=#fff2cc;strokeColor=#d6b656;" parent="od1O0DOVl9EhEDQhezG--1" vertex="1">
          <mxGeometry x="17.5" y="640" width="140" height="50" as="geometry" />
        </mxCell>
        <mxCell id="od1O0DOVl9EhEDQhezG--18" value="&lt;span style=&quot;font-size: 20px;&quot;&gt;&lt;b&gt;MongoDB&lt;/b&gt;&lt;/span&gt;" style="rounded=1;whiteSpace=wrap;html=1;fillColor=#fff2cc;strokeColor=#d6b656;" parent="od1O0DOVl9EhEDQhezG--1" vertex="1">
          <mxGeometry x="230" y="580" width="140" height="50" as="geometry" />
        </mxCell>
        <mxCell id="od1O0DOVl9EhEDQhezG--19" value="&lt;font style=&quot;font-size: 20px;&quot;&gt;&lt;b&gt;Mongoose&lt;/b&gt;&lt;/font&gt;" style="rounded=1;whiteSpace=wrap;html=1;fillColor=#fff2cc;strokeColor=#d6b656;" parent="od1O0DOVl9EhEDQhezG--1" vertex="1">
          <mxGeometry x="230" y="640" width="140" height="50" as="geometry" />
        </mxCell>
        <mxCell id="od1O0DOVl9EhEDQhezG--20" style="edgeStyle=orthogonalEdgeStyle;rounded=0;orthogonalLoop=1;jettySize=auto;html=1;entryX=0.194;entryY=0;entryDx=0;entryDy=0;entryPerimeter=0;" parent="od1O0DOVl9EhEDQhezG--1" source="od1O0DOVl9EhEDQhezG--9" target="od1O0DOVl9EhEDQhezG--2" edge="1">
          <mxGeometry relative="1" as="geometry" />
        </mxCell>
        <mxCell id="od1O0DOVl9EhEDQhezG--21" value="&lt;font style=&quot;font-size: 24px;&quot;&gt;&lt;b&gt;Must be Installed Before&lt;/b&gt;&lt;/font&gt;" style="text;html=1;align=center;verticalAlign=middle;resizable=0;points=[];autosize=1;strokeColor=none;fillColor=none;" parent="od1O0DOVl9EhEDQhezG--1" vertex="1">
          <mxGeometry x="-530" y="610" width="300" height="40" as="geometry" />
        </mxCell>
        <mxCell id="NZZS5LElKD9SXboPFHb7-4" value="" style="aspect=fixed;sketch=0;html=1;dashed=0;whitespace=wrap;verticalLabelPosition=bottom;verticalAlign=top;fillColor=#2875E2;strokeColor=#ffffff;points=[[0.005,0.63,0],[0.1,0.2,0],[0.9,0.2,0],[0.5,0,0],[0.995,0.63,0],[0.72,0.99,0],[0.5,1,0],[0.28,0.99,0]];shape=mxgraph.kubernetes.icon2;kubernetesLabel=1;prIcon=deploy" parent="od1O0DOVl9EhEDQhezG--1" vertex="1">
          <mxGeometry x="-167.5" y="200" width="72.91" height="70" as="geometry" />
        </mxCell>
        <mxCell id="IQBRXLcshc7aDPXRfiFP-1" value="" style="shadow=0;dashed=0;html=1;strokeColor=none;fillColor=#EF8F21;labelPosition=center;verticalLabelPosition=bottom;verticalAlign=top;align=center;outlineConnect=0;shape=mxgraph.veeam.failed;" parent="od1O0DOVl9EhEDQhezG--1" vertex="1">
          <mxGeometry x="51.25" y="630" width="72.5" height="80" as="geometry" />
        </mxCell>
      </root>
    </mxGraphModel>
  </diagram>
  <diagram name="Docker" id="YXZ6XxWevI_eBPEayFie">
    <mxGraphModel dx="2182" dy="576" grid="1" gridSize="10" guides="1" tooltips="1" connect="1" arrows="1" fold="1" page="1" pageScale="1" pageWidth="850" pageHeight="1100" math="0" shadow="0">
      <root>
        <mxCell id="GLJ5spOT7nmPO98NI6RV-0" />
        <mxCell id="GLJ5spOT7nmPO98NI6RV-1" parent="GLJ5spOT7nmPO98NI6RV-0" />
        <mxCell id="jSqeKdwPY2E-bfqgPDKU-0" value="" style="rounded=0;whiteSpace=wrap;html=1;" parent="GLJ5spOT7nmPO98NI6RV-1" vertex="1">
          <mxGeometry x="-390" y="195" width="850" height="185" as="geometry" />
        </mxCell>
        <mxCell id="GLJ5spOT7nmPO98NI6RV-4" value="&lt;font style=&quot;font-size: 24px;&quot;&gt;&lt;b&gt;Full Stack Application&lt;/b&gt;&lt;/font&gt;" style="rounded=0;whiteSpace=wrap;html=1;fillColor=#dae8fc;strokeColor=#6c8ebf;" parent="GLJ5spOT7nmPO98NI6RV-1" vertex="1">
          <mxGeometry x="150" y="240" width="270" height="90" as="geometry" />
        </mxCell>
        <mxCell id="RiaWG0wkOY8J_mRMR9am-4" style="edgeStyle=orthogonalEdgeStyle;rounded=0;orthogonalLoop=1;jettySize=auto;html=1;" parent="GLJ5spOT7nmPO98NI6RV-1" source="RiaWG0wkOY8J_mRMR9am-1" edge="1">
          <mxGeometry relative="1" as="geometry">
            <mxPoint x="140" y="285" as="targetPoint" />
          </mxGeometry>
        </mxCell>
        <mxCell id="RiaWG0wkOY8J_mRMR9am-1" value="&lt;font style=&quot;font-size: 24px;&quot;&gt;&lt;b&gt;Docker&lt;/b&gt;&lt;/font&gt;" style="rounded=0;whiteSpace=wrap;html=1;fillColor=#dae8fc;strokeColor=#6c8ebf;" parent="GLJ5spOT7nmPO98NI6RV-1" vertex="1">
          <mxGeometry x="-350" y="240" width="170" height="90" as="geometry" />
        </mxCell>
        <mxCell id="GLJ5spOT7nmPO98NI6RV-21" value="&lt;font style=&quot;font-size: 24px;&quot;&gt;&lt;b&gt;Packs App into container(s)&lt;/b&gt;&lt;/font&gt;" style="text;html=1;align=center;verticalAlign=middle;resizable=0;points=[];autosize=1;strokeColor=none;fillColor=none;" parent="GLJ5spOT7nmPO98NI6RV-1" vertex="1">
          <mxGeometry x="-185" y="240" width="340" height="40" as="geometry" />
        </mxCell>
        <mxCell id="jSqeKdwPY2E-bfqgPDKU-1" value="&lt;font style=&quot;font-size: 24px;&quot;&gt;&lt;b&gt;Your Computer&lt;/b&gt;&lt;/font&gt;" style="text;html=1;align=center;verticalAlign=middle;resizable=0;points=[];autosize=1;strokeColor=none;fillColor=none;" parent="GLJ5spOT7nmPO98NI6RV-1" vertex="1">
          <mxGeometry x="-400" y="150" width="200" height="40" as="geometry" />
        </mxCell>
      </root>
    </mxGraphModel>
  </diagram>
  <diagram name="But How" id="l1YXdmBu5WodNDSJvNeR">
    <mxGraphModel dx="3514" dy="2252" grid="1" gridSize="10" guides="1" tooltips="1" connect="1" arrows="1" fold="1" page="1" pageScale="1" pageWidth="850" pageHeight="1100" math="0" shadow="0">
      <root>
        <mxCell id="H0r0l4O8-3tPjCxbJ50R-0" />
        <mxCell id="H0r0l4O8-3tPjCxbJ50R-1" parent="H0r0l4O8-3tPjCxbJ50R-0" />
        <mxCell id="PpGtze0UwPGxOQbcyZcI-0" value="" style="rounded=0;whiteSpace=wrap;html=1;" parent="H0r0l4O8-3tPjCxbJ50R-1" vertex="1">
          <mxGeometry x="260" y="940" width="200" height="170" as="geometry" />
        </mxCell>
        <mxCell id="H0r0l4O8-3tPjCxbJ50R-7" value="&lt;font style=&quot;font-size: 20px;&quot;&gt;&lt;b&gt;React&lt;/b&gt;&lt;/font&gt;" style="rounded=1;whiteSpace=wrap;html=1;fillColor=#fff2cc;strokeColor=#d6b656;" parent="H0r0l4O8-3tPjCxbJ50R-1" vertex="1">
          <mxGeometry x="305" y="960" width="100" height="50" as="geometry" />
        </mxCell>
        <mxCell id="H0r0l4O8-3tPjCxbJ50R-9" value="&lt;span style=&quot;font-size: 20px;&quot;&gt;&lt;b&gt;Frontend&lt;/b&gt;&lt;/span&gt;" style="rounded=1;whiteSpace=wrap;html=1;fillColor=#f8cecc;strokeColor=#b85450;" parent="H0r0l4O8-3tPjCxbJ50R-1" vertex="1">
          <mxGeometry x="353.75" y="820" width="115" height="60" as="geometry" />
        </mxCell>
        <mxCell id="BL2VHlBQYXyyj7p4832D-17" style="edgeStyle=orthogonalEdgeStyle;rounded=0;orthogonalLoop=1;jettySize=auto;html=1;" parent="H0r0l4O8-3tPjCxbJ50R-1" source="H0r0l4O8-3tPjCxbJ50R-11" edge="1">
          <mxGeometry relative="1" as="geometry">
            <mxPoint x="582.5" y="929.9999999999995" as="targetPoint" />
          </mxGeometry>
        </mxCell>
        <mxCell id="H0r0l4O8-3tPjCxbJ50R-11" value="&lt;span style=&quot;font-size: 20px;&quot;&gt;&lt;b&gt;Backend&lt;/b&gt;&lt;/span&gt;&lt;span style=&quot;color: rgba(0, 0, 0, 0); font-family: monospace; font-size: 0px; text-align: start; text-wrap: nowrap;&quot;&gt;%3CmxGraphModel%3E%3Croot%3E%3CmxCell%20id%3D%220%22%2F%3E%3CmxCell%20id%3D%221%22%20parent%3D%220%22%2F%3E%3CmxCell%20id%3D%222%22%20value%3D%22%26lt%3Bspan%20style%3D%26quot%3Bfont-size%3A%2020px%3B%26quot%3B%26gt%3B%26lt%3Bb%26gt%3BFrontend%26lt%3B%2Fb%26gt%3B%26lt%3B%2Fspan%26gt%3B%22%20style%3D%22rounded%3D1%3BwhiteSpace%3Dwrap%3Bhtml%3D1%3BfillColor%3D%23f8cecc%3BstrokeColor%3D%23b85450%3B%22%20vertex%3D%221%22%20parent%3D%221%22%3E%3CmxGeometry%20x%3D%22325%22%20y%3D%22400%22%20width%3D%22115%22%20height%3D%2260%22%20as%3D%22geometry%22%2F%3E%3C%2FmxCell%3E%3C%2Froot%3E%3C%2FmxGraphModel%3E&lt;/span&gt;" style="rounded=1;whiteSpace=wrap;html=1;fillColor=#f8cecc;strokeColor=#b85450;" parent="H0r0l4O8-3tPjCxbJ50R-1" vertex="1">
          <mxGeometry x="525" y="820" width="115" height="60" as="geometry" />
        </mxCell>
        <mxCell id="H0r0l4O8-3tPjCxbJ50R-13" value="&lt;span style=&quot;font-size: 20px;&quot;&gt;&lt;b&gt;Database&lt;/b&gt;&lt;/span&gt;" style="rounded=1;whiteSpace=wrap;html=1;fillColor=#f8cecc;strokeColor=#b85450;" parent="H0r0l4O8-3tPjCxbJ50R-1" vertex="1">
          <mxGeometry x="680" y="820" width="115" height="60" as="geometry" />
        </mxCell>
        <mxCell id="H0r0l4O8-3tPjCxbJ50R-16" value="&lt;font style=&quot;font-size: 20px;&quot;&gt;&lt;b&gt;Tailwind CSS&lt;/b&gt;&lt;/font&gt;" style="rounded=1;whiteSpace=wrap;html=1;fillColor=#fff2cc;strokeColor=#d6b656;" parent="H0r0l4O8-3tPjCxbJ50R-1" vertex="1">
          <mxGeometry x="292.5" y="1030" width="140" height="50" as="geometry" />
        </mxCell>
        <mxCell id="PpGtze0UwPGxOQbcyZcI-1" value="" style="rounded=0;whiteSpace=wrap;html=1;" parent="H0r0l4O8-3tPjCxbJ50R-1" vertex="1">
          <mxGeometry x="500" y="940" width="200" height="170" as="geometry" />
        </mxCell>
        <mxCell id="PpGtze0UwPGxOQbcyZcI-2" value="&lt;font style=&quot;font-size: 20px;&quot;&gt;&lt;b&gt;Express JS&lt;/b&gt;&lt;/font&gt;" style="rounded=1;whiteSpace=wrap;html=1;fillColor=#fff2cc;strokeColor=#d6b656;" parent="H0r0l4O8-3tPjCxbJ50R-1" vertex="1">
          <mxGeometry x="530" y="960" width="140" height="50" as="geometry" />
        </mxCell>
        <mxCell id="PpGtze0UwPGxOQbcyZcI-3" value="&lt;font style=&quot;font-size: 20px;&quot;&gt;&lt;b&gt;JWT libraries&lt;/b&gt;&lt;/font&gt;" style="rounded=1;whiteSpace=wrap;html=1;fillColor=#fff2cc;strokeColor=#d6b656;" parent="H0r0l4O8-3tPjCxbJ50R-1" vertex="1">
          <mxGeometry x="530" y="1030" width="140" height="50" as="geometry" />
        </mxCell>
        <mxCell id="PpGtze0UwPGxOQbcyZcI-4" value="" style="rounded=0;whiteSpace=wrap;html=1;" parent="H0r0l4O8-3tPjCxbJ50R-1" vertex="1">
          <mxGeometry x="740" y="940" width="200" height="170" as="geometry" />
        </mxCell>
        <mxCell id="PpGtze0UwPGxOQbcyZcI-5" value="&lt;span style=&quot;font-size: 20px;&quot;&gt;&lt;b&gt;MongoDB&lt;/b&gt;&lt;/span&gt;" style="rounded=1;whiteSpace=wrap;html=1;fillColor=#fff2cc;strokeColor=#d6b656;" parent="H0r0l4O8-3tPjCxbJ50R-1" vertex="1">
          <mxGeometry x="775" y="960" width="140" height="50" as="geometry" />
        </mxCell>
        <mxCell id="PpGtze0UwPGxOQbcyZcI-6" value="&lt;font style=&quot;font-size: 20px;&quot;&gt;&lt;b&gt;Mongoose&lt;/b&gt;&lt;/font&gt;" style="rounded=1;whiteSpace=wrap;html=1;fillColor=#fff2cc;strokeColor=#d6b656;" parent="H0r0l4O8-3tPjCxbJ50R-1" vertex="1">
          <mxGeometry x="775" y="1030" width="140" height="50" as="geometry" />
        </mxCell>
        <mxCell id="BL2VHlBQYXyyj7p4832D-5" style="edgeStyle=orthogonalEdgeStyle;rounded=0;orthogonalLoop=1;jettySize=auto;html=1;" parent="H0r0l4O8-3tPjCxbJ50R-1" edge="1">
          <mxGeometry relative="1" as="geometry">
            <mxPoint x="140" y="-35" as="targetPoint" />
            <mxPoint x="52.5" y="-34.97058823529392" as="sourcePoint" />
          </mxGeometry>
        </mxCell>
        <mxCell id="BL2VHlBQYXyyj7p4832D-1" style="edgeStyle=orthogonalEdgeStyle;rounded=0;orthogonalLoop=1;jettySize=auto;html=1;" parent="H0r0l4O8-3tPjCxbJ50R-1" source="BL2VHlBQYXyyj7p4832D-0" edge="1">
          <mxGeometry relative="1" as="geometry">
            <mxPoint x="-80" y="-35" as="targetPoint" />
          </mxGeometry>
        </mxCell>
        <mxCell id="BL2VHlBQYXyyj7p4832D-0" value="" style="shape=image;aspect=fixed;image=data:image/svg+xml,PCFET0NUWVBFIHN2ZyBQVUJMSUMgIi0vL1czQy8vRFREIFNWRyAxLjEvL0VOIiAiaHR0cDovL3d3dy53My5vcmcvR3JhcGhpY3MvU1ZHLzEuMS9EVEQvc3ZnMTEuZHRkIj4KDTwhLS0gVXBsb2FkZWQgdG86IFNWRyBSZXBvLCB3d3cuc3ZncmVwby5jb20sIFRyYW5zZm9ybWVkIGJ5OiBTVkcgUmVwbyBNaXhlciBUb29scyAtLT4KPHN2ZyBmaWxsPSIjMDAwMDAwIiB2ZXJzaW9uPSIxLjEiIGlkPSJDYXBhXzEiIHhtbG5zPSJodHRwOi8vd3d3LnczLm9yZy8yMDAwL3N2ZyIgeG1sbnM6eGxpbms9Imh0dHA6Ly93d3cudzMub3JnLzE5OTkveGxpbmsiIHdpZHRoPSI4MDBweCIgaGVpZ2h0PSI4MDBweCIgdmlld0JveD0iMCAwIDMxLjY5OSAzMS42OTkiIHhtbDpzcGFjZT0icHJlc2VydmUiPgoNPGcgaWQ9IlNWR1JlcG9fYmdDYXJyaWVyIiBzdHJva2Utd2lkdGg9IjAiLz4KDTxnIGlkPSJTVkdSZXBvX3RyYWNlckNhcnJpZXIiIHN0cm9rZS1saW5lY2FwPSJyb3VuZCIgc3Ryb2tlLWxpbmVqb2luPSJyb3VuZCIvPgoNPGcgaWQ9IlNWR1JlcG9faWNvbkNhcnJpZXIiPiA8Zz4gPGc+IDxjaXJjbGUgY3g9IjEzLjM1MiIgY3k9IjYuNDU5IiByPSIyLjgzMSIvPiA8cGF0aCBkPSJNMTEuMDI1LDE1LjQxM2MwLjk0MywwLjY1NywyLjA2MiwwLjk4NSwzLjM0NywwLjk4NWMwLjcwMSwwLDIuOTE4LTAuNDgyLDMuNDQ2LTAuNjUyIGMwLjU5Ny0wLjIwNSwwLjg5NS0wLjQ5MywxLjA3NC0wLjg0NWMwLjIyMS0wLjU5MiwwLjExNS0xLjIxNywwLjExNS0xLjIxN2MtMC4xNzktMS4xMS0xLjI2My0xLjM2Mi0yLjEwNS0xLjA1NyBjLTEuMjU3LDAuNDQ5LTIuOTcyLDAuODM2LTQuMDA3LDAuMTI2Yy0wLjQzOC0wLjMtMC43MTMtMC43NjgtMC44ODUtMS4yMjJjMC4yNTgtMC44NTIsMC4wOTItMS44MTItMC41MjctMi41NDIgYy0wLjk2OS0xLjE0LTIuNTc2LTEuMTQyLTMuODE4LTAuMzA5Yy0yLjEzMiwxLjQzLTMuNzg3LDYuNTAyLTMuNzg3LDkuMzU3YzAuMDEsMC4wMDItMC4wODUsMS4zOTgsMS40NzgsMS41MzMgYzAuNDY5LDAuMDI0LDQuNTczLDAuMDE0LDUuODY1LDAuMDFjMC4wMDUsMC4wMjMsMC4wMTIsMC4wNjYsMC4wMTIsMC4xMzdjLTAuMDA1LDEuMTgyLDAuMDAxLDUuNDgsMC4wMDQsNy40NzUgYzAuMDAxLDAuNTY0LDAuNDYsMS4wMjEsMS4wMjYsMS4wMjFoMS4wMTZjMC4yNzMsMCwwLjUzNC0wLjEwNSwwLjcyNi0wLjMwMWMwLjE5Mi0wLjE5MywwLjMtMC40NTMsMC4zLTAuNzI3IGMtMC4wMDMtMS45OTItMC4wMDktNi4yODEtMC4wMDUtNy40NTdjMC4wMDktMi4wOTEtMS41ODQtMy4wNjItMi42NTctMy4yMDNsLTAuMjA4LTAuMDE1Yy0wLjYxNCwwLjAwMi0xLjM0NiwwLjAwNC0yLjA4MiwwLjAwNiBjMC4xNjgtMC44MDUsMC40MTUtMS40NzEsMC42NzQtMi4wMUMxMC4zMDYsMTQuODMzLDEwLjYzNSwxNS4xNCwxMS4wMjUsMTUuNDEzeiIvPiA8cGF0aCBkPSJNMy4wNzEsNi43MzhjMC0wLjg0OC0wLjY4OC0xLjUzNC0xLjUzNS0xLjUzNEMwLjY4OCw1LjIwNCwwLDUuODkxLDAsNi43Mzh2MTUuMzM5YzAsMC43OTEsMC42MDEsMS40NDEsMS4zNzEsMS41MjEgYzAuMDAxLDAuMDA1LDAuMDAzLDAuMDA3LDAuMDA1LDAuMDA3aDAuNTV2My41ODZjMCwwLjU2MywwLjQ1MSwxLjAyMiwxLjAxNSwxLjAyMmMwLjU2NSwwLDEuMDE1LTAuNDU3LDEuMDE1LTEuMDIydi0zLjU4NmgzLjIyOCB2My41ODZjMCwwLjU2MywwLjQ1MSwxLjAyMiwxLjAxNiwxLjAyMmMwLjU2NCwwLDEuMDE1LTAuNDU3LDEuMDE1LTEuMDIydi0zLjU4NmgwLjk4OXYtMy4wN0gzLjA3MVY2LjczOHoiLz4gPHBhdGggZD0iTTMwLjY4OSwxNi45NDJjLTAuMjM0LTEuMjA3LTEuMDA4LTIuMjI0LTIuMDYyLTIuNzgxdi0wLjk2OGgxLjQ1N1Y2LjQ0NWwtNS41NjctMS45OTZWMy40NmgtMi4wMzF2MTAuMjU2aDIuMDMxdi0wLjUyMSBoMS4wNDF2MC42OTZjLTEuMzc5LDAuNDM5LTIuNDI4LDEuNjA2LTIuNzA5LDMuMDUyaC02LjQ4OGMtMC41NjUsMC0xLjAyMywwLjQ3Ny0xLjAyMywxLjA0MWMwLDAuNTY1LDAuNDU4LDEuMDQxLDEuMDIzLDEuMDQxIGgyLjA2M3Y5LjIxNWgxMS4yNDR2LTkuMjE1aDEuMDA3YzAuNTY0LDAsMS4wMjMtMC40NzYsMS4wMjMtMS4wNDFDMzEuNzAyLDE3LjQyMywzMS4yNSwxNi45NDgsMzAuNjg5LDE2Ljk0MnoiLz4gPC9nPiA8L2c+IDwvZz4KDTwvc3ZnPg==;" parent="H0r0l4O8-3tPjCxbJ50R-1" vertex="1">
          <mxGeometry x="-350" y="-105" width="140" height="140" as="geometry" />
        </mxCell>
        <mxCell id="BL2VHlBQYXyyj7p4832D-7" style="edgeStyle=orthogonalEdgeStyle;rounded=0;orthogonalLoop=1;jettySize=auto;html=1;" parent="H0r0l4O8-3tPjCxbJ50R-1" source="BL2VHlBQYXyyj7p4832D-3" edge="1">
          <mxGeometry relative="1" as="geometry">
            <mxPoint x="450" y="-35" as="targetPoint" />
          </mxGeometry>
        </mxCell>
        <mxCell id="BL2VHlBQYXyyj7p4832D-3" value="&lt;font style=&quot;font-size: 24px;&quot;&gt;&lt;b&gt;Docker&lt;/b&gt;&lt;/font&gt;" style="rounded=0;whiteSpace=wrap;html=1;fillColor=#dae8fc;strokeColor=#6c8ebf;" parent="H0r0l4O8-3tPjCxbJ50R-1" vertex="1">
          <mxGeometry x="158.75" y="-110" width="211.25" height="150" as="geometry" />
        </mxCell>
        <mxCell id="BL2VHlBQYXyyj7p4832D-10" style="edgeStyle=orthogonalEdgeStyle;rounded=0;orthogonalLoop=1;jettySize=auto;html=1;" parent="H0r0l4O8-3tPjCxbJ50R-1" source="BL2VHlBQYXyyj7p4832D-6" edge="1">
          <mxGeometry relative="1" as="geometry">
            <mxPoint x="590" y="137.5" as="targetPoint" />
          </mxGeometry>
        </mxCell>
        <mxCell id="BL2VHlBQYXyyj7p4832D-6" value="&lt;span style=&quot;font-size: 24px;&quot;&gt;&lt;b&gt;Image(A snapshot)&lt;/b&gt;&lt;/span&gt;" style="rounded=0;whiteSpace=wrap;html=1;fillColor=#ffe6cc;strokeColor=#d79b00;" parent="H0r0l4O8-3tPjCxbJ50R-1" vertex="1">
          <mxGeometry x="470" y="-122.5" width="240" height="192.5" as="geometry" />
        </mxCell>
        <mxCell id="BL2VHlBQYXyyj7p4832D-9" value="&lt;font style=&quot;font-size: 24px;&quot;&gt;&lt;b&gt;Container(s)&lt;/b&gt;&lt;/font&gt;" style="rounded=0;whiteSpace=wrap;html=1;fillColor=#dae8fc;strokeColor=#6c8ebf;" parent="H0r0l4O8-3tPjCxbJ50R-1" vertex="1">
          <mxGeometry x="500" y="157.5" width="190" height="160" as="geometry" />
        </mxCell>
        <mxCell id="BL2VHlBQYXyyj7p4832D-19" style="edgeStyle=orthogonalEdgeStyle;rounded=0;orthogonalLoop=1;jettySize=auto;html=1;entryX=0.5;entryY=0;entryDx=0;entryDy=0;" parent="H0r0l4O8-3tPjCxbJ50R-1" source="BL2VHlBQYXyyj7p4832D-15" target="H0r0l4O8-3tPjCxbJ50R-9" edge="1">
          <mxGeometry relative="1" as="geometry" />
        </mxCell>
        <mxCell id="BL2VHlBQYXyyj7p4832D-20" style="edgeStyle=orthogonalEdgeStyle;rounded=0;orthogonalLoop=1;jettySize=auto;html=1;" parent="H0r0l4O8-3tPjCxbJ50R-1" source="BL2VHlBQYXyyj7p4832D-15" edge="1">
          <mxGeometry relative="1" as="geometry">
            <mxPoint x="560" y="809.9999999999995" as="targetPoint" />
          </mxGeometry>
        </mxCell>
        <mxCell id="BL2VHlBQYXyyj7p4832D-21" style="edgeStyle=orthogonalEdgeStyle;rounded=0;orthogonalLoop=1;jettySize=auto;html=1;entryX=0.5;entryY=0;entryDx=0;entryDy=0;" parent="H0r0l4O8-3tPjCxbJ50R-1" source="BL2VHlBQYXyyj7p4832D-15" target="H0r0l4O8-3tPjCxbJ50R-13" edge="1">
          <mxGeometry relative="1" as="geometry" />
        </mxCell>
        <mxCell id="BL2VHlBQYXyyj7p4832D-15" value="&lt;span style=&quot;font-size: 24px;&quot;&gt;&lt;b&gt;OK, Here&#39;s the Image&lt;/b&gt;&lt;/span&gt;" style="rounded=0;whiteSpace=wrap;html=1;fillColor=#ffe6cc;strokeColor=#d79b00;" parent="H0r0l4O8-3tPjCxbJ50R-1" vertex="1">
          <mxGeometry x="440" y="570" width="240" height="192.5" as="geometry" />
        </mxCell>
        <mxCell id="BL2VHlBQYXyyj7p4832D-16" style="edgeStyle=orthogonalEdgeStyle;rounded=0;orthogonalLoop=1;jettySize=auto;html=1;entryX=0.551;entryY=-0.002;entryDx=0;entryDy=0;entryPerimeter=0;" parent="H0r0l4O8-3tPjCxbJ50R-1" source="H0r0l4O8-3tPjCxbJ50R-9" target="PpGtze0UwPGxOQbcyZcI-0" edge="1">
          <mxGeometry relative="1" as="geometry" />
        </mxCell>
        <mxCell id="BL2VHlBQYXyyj7p4832D-18" style="edgeStyle=orthogonalEdgeStyle;rounded=0;orthogonalLoop=1;jettySize=auto;html=1;entryX=0.446;entryY=-0.016;entryDx=0;entryDy=0;entryPerimeter=0;" parent="H0r0l4O8-3tPjCxbJ50R-1" source="H0r0l4O8-3tPjCxbJ50R-13" target="PpGtze0UwPGxOQbcyZcI-4" edge="1">
          <mxGeometry relative="1" as="geometry" />
        </mxCell>
        <mxCell id="jIhNXCc9EUYg61a_eQE0-5" style="edgeStyle=orthogonalEdgeStyle;rounded=0;orthogonalLoop=1;jettySize=auto;html=1;" parent="H0r0l4O8-3tPjCxbJ50R-1" edge="1">
          <mxGeometry relative="1" as="geometry">
            <mxPoint x="100" y="667.5" as="targetPoint" />
            <mxPoint x="-45" y="667.5294117647059" as="sourcePoint" />
          </mxGeometry>
        </mxCell>
        <mxCell id="jIhNXCc9EUYg61a_eQE0-1" value="&lt;b style=&quot;forced-color-adjust: none; color: rgb(0, 0, 0); font-family: Helvetica; font-size: 20px; font-style: normal; font-variant-ligatures: normal; font-variant-caps: normal; letter-spacing: normal; orphans: 2; text-align: center; text-indent: 0px; text-transform: none; widows: 2; word-spacing: 0px; -webkit-text-stroke-width: 0px; white-space: normal; background-color: rgb(251, 251, 251); text-decoration-thickness: initial; text-decoration-style: initial; text-decoration-color: initial;&quot;&gt;Pack the FSA&lt;/b&gt;" style="text;whiteSpace=wrap;html=1;" parent="H0r0l4O8-3tPjCxbJ50R-1" vertex="1">
          <mxGeometry x="-30" y="630" width="160" height="50" as="geometry" />
        </mxCell>
        <mxCell id="jIhNXCc9EUYg61a_eQE0-4" style="edgeStyle=orthogonalEdgeStyle;rounded=0;orthogonalLoop=1;jettySize=auto;html=1;" parent="H0r0l4O8-3tPjCxbJ50R-1" source="jIhNXCc9EUYg61a_eQE0-3" edge="1">
          <mxGeometry relative="1" as="geometry">
            <mxPoint x="420" y="666.25" as="targetPoint" />
          </mxGeometry>
        </mxCell>
        <mxCell id="jIhNXCc9EUYg61a_eQE0-3" value="&lt;font style=&quot;font-size: 24px;&quot;&gt;&lt;b&gt;Docker&lt;/b&gt;&lt;/font&gt;" style="rounded=0;whiteSpace=wrap;html=1;fillColor=#dae8fc;strokeColor=#6c8ebf;" parent="H0r0l4O8-3tPjCxbJ50R-1" vertex="1">
          <mxGeometry x="120" y="591.25" width="211.25" height="150" as="geometry" />
        </mxCell>
        <mxCell id="jIhNXCc9EUYg61a_eQE0-26" value="&lt;font style=&quot;font-size: 20px;&quot;&gt;&lt;b&gt;Dockerfile&lt;/b&gt;&lt;/font&gt;" style="whiteSpace=wrap;html=1;shape=mxgraph.basic.document" parent="H0r0l4O8-3tPjCxbJ50R-1" vertex="1">
          <mxGeometry x="-70" y="-160" width="120" height="237.5" as="geometry" />
        </mxCell>
        <mxCell id="jIhNXCc9EUYg61a_eQE0-27" value="&lt;font style=&quot;font-size: 20px;&quot;&gt;&lt;b&gt;Dockerfile&lt;/b&gt;&lt;/font&gt;" style="whiteSpace=wrap;html=1;shape=mxgraph.basic.document" parent="H0r0l4O8-3tPjCxbJ50R-1" vertex="1">
          <mxGeometry x="-170" y="536.25" width="120" height="237.5" as="geometry" />
        </mxCell>
      </root>
    </mxGraphModel>
  </diagram>
  <diagram id="nMnsA5eoU_-5rpTE0pfv" name="Architecture">
    <mxGraphModel dx="3032" dy="576" grid="1" gridSize="10" guides="1" tooltips="1" connect="1" arrows="1" fold="1" page="1" pageScale="1" pageWidth="850" pageHeight="1100" math="0" shadow="0">
      <root>
        <mxCell id="0" />
        <mxCell id="1" parent="0" />
        <mxCell id="rPdU6aEZ34WHURrbxlql-1" style="edgeStyle=orthogonalEdgeStyle;rounded=0;orthogonalLoop=1;jettySize=auto;html=1;" parent="1" source="rPdU6aEZ34WHURrbxlql-2" edge="1">
          <mxGeometry relative="1" as="geometry">
            <mxPoint x="-1051" y="320" as="targetPoint" />
          </mxGeometry>
        </mxCell>
        <mxCell id="rPdU6aEZ34WHURrbxlql-2" value="" style="shape=actor;whiteSpace=wrap;html=1;" parent="1" vertex="1">
          <mxGeometry x="-1370" y="290" width="40" height="60" as="geometry" />
        </mxCell>
        <mxCell id="rPdU6aEZ34WHURrbxlql-3" value="" style="rounded=0;whiteSpace=wrap;html=1;" parent="1" vertex="1">
          <mxGeometry x="-1047" y="245" width="305" height="146" as="geometry" />
        </mxCell>
        <mxCell id="rPdU6aEZ34WHURrbxlql-4" style="edgeStyle=orthogonalEdgeStyle;rounded=0;orthogonalLoop=1;jettySize=auto;html=1;" parent="1" source="rPdU6aEZ34WHURrbxlql-5" target="rPdU6aEZ34WHURrbxlql-7" edge="1">
          <mxGeometry relative="1" as="geometry" />
        </mxCell>
        <mxCell id="rPdU6aEZ34WHURrbxlql-5" value="&lt;font style=&quot;font-size: 25px;&quot;&gt;Docker&lt;/font&gt;" style="rounded=1;whiteSpace=wrap;html=1;" parent="1" vertex="1">
          <mxGeometry x="-877" y="347.5" width="115" height="36" as="geometry" />
        </mxCell>
        <mxCell id="rPdU6aEZ34WHURrbxlql-6" style="edgeStyle=orthogonalEdgeStyle;rounded=0;orthogonalLoop=1;jettySize=auto;html=1;" parent="1" source="rPdU6aEZ34WHURrbxlql-7" edge="1">
          <mxGeometry relative="1" as="geometry">
            <mxPoint x="-527" y="280.5" as="targetPoint" />
          </mxGeometry>
        </mxCell>
        <mxCell id="rPdU6aEZ34WHURrbxlql-7" value="" style="sketch=0;outlineConnect=0;fontColor=#232F3E;gradientColor=none;fillColor=#ED7100;strokeColor=none;dashed=0;verticalLabelPosition=bottom;verticalAlign=top;align=center;html=1;fontSize=12;fontStyle=0;aspect=fixed;pointerEvents=1;shape=mxgraph.aws4.container_registry_image;" parent="1" vertex="1">
          <mxGeometry x="-843.5" y="256.5" width="48" height="48" as="geometry" />
        </mxCell>
        <mxCell id="rPdU6aEZ34WHURrbxlql-8" style="edgeStyle=orthogonalEdgeStyle;rounded=0;orthogonalLoop=1;jettySize=auto;html=1;" parent="1" source="rPdU6aEZ34WHURrbxlql-9" target="rPdU6aEZ34WHURrbxlql-5" edge="1">
          <mxGeometry relative="1" as="geometry" />
        </mxCell>
        <mxCell id="rPdU6aEZ34WHURrbxlql-9" value="&lt;font style=&quot;font-size: 20px;&quot;&gt;Dockerfile&lt;/font&gt;" style="whiteSpace=wrap;html=1;shape=mxgraph.basic.document" parent="1" vertex="1">
          <mxGeometry x="-1037" y="282" width="93" height="68" as="geometry" />
        </mxCell>
        <mxCell id="rPdU6aEZ34WHURrbxlql-10" value="&lt;font style=&quot;font-size: 18px;&quot;&gt;&lt;b&gt;Made the file to build the image&lt;/b&gt;&lt;/font&gt;" style="text;html=1;align=center;verticalAlign=middle;resizable=0;points=[];autosize=1;strokeColor=none;fillColor=none;" parent="1" vertex="1">
          <mxGeometry x="-1328" y="282" width="286" height="34" as="geometry" />
        </mxCell>
        <mxCell id="rPdU6aEZ34WHURrbxlql-11" value="&lt;font style=&quot;font-size: 25px;&quot;&gt;Development Machine&lt;/font&gt;" style="text;html=1;align=center;verticalAlign=middle;resizable=0;points=[];autosize=1;strokeColor=none;fillColor=none;" parent="1" vertex="1">
          <mxGeometry x="-1028" y="190" width="267" height="42" as="geometry" />
        </mxCell>
        <mxCell id="rPdU6aEZ34WHURrbxlql-12" value="" style="shape=cylinder3;whiteSpace=wrap;html=1;boundedLbl=1;backgroundOutline=1;size=15;" parent="1" vertex="1">
          <mxGeometry x="-512" y="229" width="122" height="161" as="geometry" />
        </mxCell>
        <mxCell id="rPdU6aEZ34WHURrbxlql-13" value="" style="sketch=0;outlineConnect=0;fontColor=#232F3E;gradientColor=none;fillColor=#ED7100;strokeColor=none;dashed=0;verticalLabelPosition=bottom;verticalAlign=top;align=center;html=1;fontSize=12;fontStyle=0;aspect=fixed;pointerEvents=1;shape=mxgraph.aws4.container_registry_image;" parent="1" vertex="1">
          <mxGeometry x="-475.5" y="285" width="49" height="49" as="geometry" />
        </mxCell>
        <mxCell id="rPdU6aEZ34WHURrbxlql-14" value="&lt;font size=&quot;1&quot; style=&quot;&quot;&gt;&lt;b style=&quot;font-size: 20px;&quot;&gt;Push the Image to&amp;nbsp;&lt;/b&gt;&lt;/font&gt;&lt;div&gt;&lt;font size=&quot;1&quot; style=&quot;&quot;&gt;&lt;b style=&quot;font-size: 20px;&quot;&gt;Registry&lt;/b&gt;&lt;/font&gt;&lt;/div&gt;" style="text;html=1;align=center;verticalAlign=middle;resizable=0;points=[];autosize=1;strokeColor=none;fillColor=none;" parent="1" vertex="1">
          <mxGeometry x="-730" y="225" width="200" height="60" as="geometry" />
        </mxCell>
        <mxCell id="rPdU6aEZ34WHURrbxlql-19" value="&lt;font style=&quot;font-size: 18px;&quot;&gt;&lt;b&gt;Pulls the image from Registry&lt;/b&gt;&lt;/font&gt;" style="text;html=1;align=center;verticalAlign=middle;resizable=0;points=[];autosize=1;strokeColor=none;fillColor=none;" parent="1" vertex="1">
          <mxGeometry x="-755" y="440" width="280" height="40" as="geometry" />
        </mxCell>
        <mxCell id="hcx236kknotdo_JAioGb-2" style="edgeStyle=orthogonalEdgeStyle;rounded=0;orthogonalLoop=1;jettySize=auto;html=1;entryX=0.5;entryY=1;entryDx=0;entryDy=0;entryPerimeter=0;" edge="1" parent="1" source="rPdU6aEZ34WHURrbxlql-5" target="rPdU6aEZ34WHURrbxlql-12">
          <mxGeometry relative="1" as="geometry">
            <Array as="points">
              <mxPoint x="-819" y="440" />
              <mxPoint x="-451" y="440" />
            </Array>
          </mxGeometry>
        </mxCell>
      </root>
    </mxGraphModel>
  </diagram>
</mxfile>
